<?xml version="1.0" encoding="utf-8"?>
<!-- Generator: Adobe Illustrator 26.0.3, SVG Export Plug-In . SVG Version: 6.00 Build 0)  -->
<svg version="1.1" id="Layer_1" xmlns="http://www.w3.org/2000/svg" x="0px" y="0px"
	 viewBox="0 0 320 100" style="enable-background:new 0 0 320 100;" xml:space="preserve">
<style type="text/css">
	.st0{fill:#FFFFFF;}
	.st1{fill:none;stroke:#000000;stroke-width:5;stroke-miterlimit:10;}
	.st2{fill:none;stroke:#000000;stroke-width:3.1;stroke-linecap:round;stroke-miterlimit:10;}
	.st3{fill:none;stroke:#000000;stroke-width:3.357;stroke-linecap:round;stroke-miterlimit:10;}
	.st4{fill:none;stroke:#000000;stroke-width:1.8452;stroke-miterlimit:10;}
	.st5{fill:none;stroke:#000000;stroke-width:1.5431;stroke-miterlimit:10;}
</style>
	<rect x="1.11" y="0.16" class="st0" width="317.72" height="99.08"/>
	<g>
	<path d="M139.25,40.18h-9.42v28.11h-4.38V40.18h-9.42v-3.7h23.22V40.18z"/>
		<path d="M167.88,43.85l-3.55,24.44h-5.13l-3.53-10.22l-0.71-2.48l-0.8,2.63l-3.38,10.08h-4.99l-3.53-24.44h4.14l2.04,16.6l0.44,3.7
		l1.04-3.24l3.55-10.98h3.04l3.82,10.83l1.1,3.24l0.37-3.43l1.9-16.72H167.88z"/>
		<path d="M180.97,47.36h-7.23v-3.5h11.51v20.91h7.28v3.53h-19.59v-3.53h8.03V47.36z M182.46,33.61c0.47,0,0.91,0.09,1.31,0.26
		c0.41,0.17,0.76,0.41,1.06,0.72c0.3,0.31,0.54,0.66,0.71,1.06c0.17,0.4,0.26,0.83,0.26,1.3c0,0.45-0.08,0.88-0.26,1.29
		c-0.17,0.41-0.41,0.76-0.71,1.07c-0.3,0.31-0.65,0.55-1.06,0.72c-0.41,0.17-0.84,0.26-1.31,0.26s-0.91-0.09-1.31-0.26
		c-0.41-0.17-0.76-0.41-1.06-0.72c-0.3-0.31-0.54-0.67-0.71-1.07c-0.17-0.41-0.26-0.84-0.26-1.29c0-0.47,0.08-0.9,0.26-1.3
		c0.17-0.4,0.41-0.75,0.71-1.06c0.3-0.31,0.65-0.55,1.06-0.72C181.55,33.69,181.99,33.61,182.46,33.61z"/>
		<path d="M219.41,61.62c0,0.86-0.15,1.63-0.44,2.31c-0.29,0.68-0.69,1.29-1.19,1.81c-0.5,0.53-1.09,0.98-1.75,1.35
		c-0.67,0.37-1.38,0.68-2.13,0.92c-0.75,0.24-1.53,0.42-2.32,0.54s-1.57,0.17-2.34,0.17c-1.65,0-3.18-0.07-4.56-0.22
		c-1.39-0.15-2.75-0.38-4.08-0.71v-3.89c1.43,0.41,2.85,0.71,4.26,0.92s2.82,0.32,4.21,0.32c2.03,0,3.53-0.28,4.5-0.83
		c0.97-0.55,1.46-1.34,1.46-2.36c0-0.44-0.08-0.83-0.23-1.18c-0.15-0.35-0.43-0.68-0.84-1c-0.41-0.32-1.03-0.65-1.89-0.99
		c-0.85-0.34-2.02-0.73-3.49-1.17c-1.1-0.32-2.12-0.69-3.05-1.11c-0.93-0.41-1.74-0.9-2.42-1.47c-0.68-0.57-1.22-1.23-1.61-2
		c-0.39-0.76-0.58-1.66-0.58-2.7c0-0.68,0.16-1.43,0.47-2.24s0.86-1.57,1.62-2.26c0.76-0.7,1.79-1.28,3.09-1.74s2.92-0.69,4.87-0.69
		c0.96,0,2.02,0.05,3.19,0.16c1.17,0.11,2.39,0.29,3.65,0.55v3.77c-1.33-0.32-2.59-0.56-3.79-0.72s-2.23-0.23-3.1-0.23
		c-1.05,0-1.94,0.08-2.67,0.24c-0.72,0.16-1.31,0.39-1.75,0.67s-0.77,0.62-0.96,1s-0.29,0.79-0.29,1.23c0,0.44,0.08,0.84,0.26,1.19
		c0.17,0.36,0.49,0.7,0.95,1.03c0.46,0.33,1.11,0.67,1.93,1c0.83,0.33,1.91,0.69,3.24,1.08c1.44,0.42,2.66,0.86,3.65,1.33
		c0.99,0.46,1.79,0.98,2.41,1.54c0.62,0.57,1.06,1.21,1.33,1.92C219.27,59.9,219.41,60.71,219.41,61.62z"/>
		<path d="M247.15,67.95c-0.96,0.24-1.95,0.42-2.97,0.52s-2.06,0.16-3.12,0.16c-3.07,0-5.36-0.69-6.86-2.08s-2.26-3.52-2.26-6.39
		V47.41h-6.84v-3.55h6.84v-6.72l4.24-1.1v7.81h10.98v3.55h-10.98v12.41c0,1.75,0.47,3.06,1.4,3.93c0.93,0.87,2.31,1.3,4.13,1.3
		c0.78,0,1.63-0.06,2.56-0.18s1.89-0.31,2.9-0.57V67.95z"/>
		<path d="M275.71,46.21c0,1.3-0.24,2.58-0.73,3.86c-0.49,1.27-1.24,2.41-2.26,3.42c-1.02,1.01-2.33,1.82-3.92,2.45
		c-1.59,0.62-3.49,0.94-5.7,0.94h-3.94v11.42h-4.33V36.48h8.96c1.57,0,3.08,0.17,4.53,0.52c1.44,0.35,2.71,0.91,3.81,1.69
		c1.1,0.78,1.97,1.79,2.62,3.02C275.38,42.95,275.71,44.45,275.71,46.21z M271.2,46.41c0-2.04-0.67-3.61-2.01-4.7
		c-1.34-1.09-3.21-1.63-5.61-1.63h-4.43v13.1h4.04c2.56,0,4.54-0.56,5.93-1.68C270.51,50.38,271.2,48.68,271.2,46.41z"/>
		<path d="M304.01,43.85l-8.32,21.86c-0.86,2.22-1.75,4.14-2.67,5.74s-1.92,2.92-3.01,3.96c-1.09,1.03-2.28,1.79-3.58,2.28
		c-1.3,0.49-2.75,0.73-4.36,0.73c-0.42,0-0.8-0.01-1.14-0.02c-0.34-0.02-0.71-0.04-1.12-0.07v-3.85c0.36,0.05,0.75,0.09,1.17,0.13
		c0.42,0.04,0.87,0.06,1.34,0.06c0.78,0,1.5-0.11,2.18-0.34c0.67-0.23,1.31-0.6,1.91-1.11c0.6-0.51,1.18-1.17,1.73-1.98
		c0.55-0.81,1.09-1.79,1.61-2.95l-9.76-24.44h4.82l6.18,16.16l1.24,3.8l1.41-3.89l5.72-16.06H304.01z"/>
</g>
	<g>
	<ellipse class="st1" cx="53.19" cy="50.26" rx="41.96" ry="41.44"/>
		<path class="st2" d="M59.75,76.76c8.92,3.62,22.09,3.91,23.19-8.28c1.01-11.09-6.96-22.41-14.14-30.06
		c-7.79-8.31-18.88-16.76-30.72-17.61c-9.2-0.66-14.71,5.57-13.74,14.55C25.82,49,36.74,61.58,47.29,69.53"/>
		<path class="st2" d="M60.01,23.66c8.84-4.01,15.32-3.97,19.69,0.4c7.32,7.32,1.57,24.92-12.83,39.32S34.86,83.52,27.55,76.2
		c-7.32-7.32-1.57-24.92,12.83-39.32c2.93-2.93,5.04-4.49,8.12-6.67"/>
		<g>
		<g>
			<g>
				<g>
					<g>
						<line class="st3" x1="84.67" y1="19.54" x2="94.85" y2="9.36"/>
						<g>
							<g>
								<path class="st0" d="M97.97,12.85c1.82-1.82,1.82-4.78,0-6.6c-1.82-1.82-4.78-1.82-6.6,0c-1.82,1.82-1.82,4.78,0,6.6
									S96.14,14.68,97.97,12.85z"/>
								<path d="M98.4,13.29c-2.06,2.06-5.42,2.06-7.48,0s-2.06-5.42,0-7.48c2.06-2.06,5.42-2.06,7.48,0S100.47,11.23,98.4,13.29
									C96.34,15.35,100.47,11.23,98.4,13.29z M91.8,6.69c-1.58,1.58-1.58,4.15,0,5.73c1.58,1.58,4.15,1.58,5.73,0
									c1.58-1.58,1.58-4.15,0-5.73C95.95,5.11,93.38,5.11,91.8,6.69C90.22,8.27,93.38,5.11,91.8,6.69z"/>
							</g>
						</g>
					</g>
				</g>
			</g>
			<g>
				<g>
					<g>
						<line class="st3" x1="23.02" y1="81.2" x2="12.84" y2="91.37"/>
						<g>
							<g>
								<path class="st0" d="M9.72,87.88c-1.82,1.82-1.82,4.78,0,6.6s4.78,1.82,6.6,0c1.82-1.82,1.82-4.78,0-6.6
									C14.5,86.06,11.55,86.06,9.72,87.88z"/>
								<path d="M9.28,87.45c2.06-2.06,5.42-2.06,7.48,0c2.06,2.06,2.06,5.42,0,7.48c-2.06,2.06-5.42,2.06-7.48,0
									S7.22,89.51,9.28,87.45C11.35,85.38,7.22,89.51,9.28,87.45z M15.89,94.05c1.58-1.58,1.58-4.15,0-5.73s-4.15-1.58-5.73,0
									c-1.58,1.58-1.58,4.15,0,5.73S14.31,95.63,15.89,94.05C17.47,92.47,14.31,95.63,15.89,94.05z"/>
							</g>
						</g>
					</g>
				</g>
			</g>
		</g>
	</g>
		<g>
		<circle class="st4" cx="54.47" cy="50.47" r="13.93"/>
			<polyline class="st5" points="41.38,50.14 46.4,50.14 46.4,50.14 49.48,40.89 49.48,40.89 49.47,58.35 53.92,44.29 53.92,44.29
			54.47,51.87 54.79,50.06 68.12,50.06 		"/>
	</g>
</g>
</svg>
