<?xml version="1.0" encoding="utf-8"?>
<!-- Generator: Adobe Illustrator 26.0.3, SVG Export Plug-In . SVG Version: 6.00 Build 0)  -->
<svg version="1.1" id="Layer_1" xmlns="http://www.w3.org/2000/svg" x="0px" y="0px"
     viewBox="0 0 320 100" style="enable-background:new 0 0 320 100;" xml:space="preserve">
<style type="text/css">
	.st0{fill:#FFFFFF;}
	.st1{fill:none;stroke:#000000;stroke-width:5;stroke-miterlimit:10;}
	.st2{fill:none;stroke:#000000;stroke-width:3.1;stroke-linecap:round;stroke-miterlimit:10;}
	.st3{fill:none;stroke:#000000;stroke-width:3.357;stroke-linecap:round;stroke-miterlimit:10;}
	.st4{fill:none;stroke:#000000;stroke-width:1.8452;stroke-miterlimit:10;}
	.st5{fill:none;stroke:#000000;stroke-width:1.5185;stroke-miterlimit:10;}
</style>
    <rect x="0.36" y="-0.12" class="st0" width="319.49" height="99.63"/>
    <g>
	<path d="M139.25,30.7h-9.42v28.11h-4.38V30.7h-9.42V27h23.22V30.7z"/>
        <path d="M167.88,34.37l-3.55,24.44h-5.13l-3.53-10.22l-0.71-2.48l-0.8,2.63l-3.38,10.08h-4.99l-3.53-24.44h4.14l2.04,16.6l0.44,3.7
		l1.04-3.24l3.55-10.98h3.04l3.82,10.83l1.1,3.24l0.37-3.43l1.9-16.72H167.88z"/>
        <path d="M180.97,37.88h-7.23v-3.5h11.51v20.91h7.28v3.53h-19.59v-3.53h8.03V37.88z M182.46,24.13c0.47,0,0.91,0.09,1.31,0.26
		c0.41,0.17,0.76,0.41,1.06,0.72c0.3,0.31,0.54,0.66,0.71,1.06c0.17,0.4,0.26,0.83,0.26,1.3c0,0.45-0.08,0.88-0.26,1.29
		c-0.17,0.41-0.41,0.76-0.71,1.07c-0.3,0.31-0.65,0.55-1.06,0.72c-0.41,0.17-0.84,0.26-1.31,0.26s-0.91-0.09-1.31-0.26
		c-0.41-0.17-0.76-0.41-1.06-0.72c-0.3-0.31-0.54-0.67-0.71-1.07c-0.17-0.41-0.26-0.84-0.26-1.29c0-0.47,0.08-0.9,0.26-1.3
		c0.17-0.4,0.41-0.75,0.71-1.06c0.3-0.31,0.65-0.55,1.06-0.72C181.55,24.21,181.99,24.13,182.46,24.13z"/>
        <path d="M219.41,52.14c0,0.86-0.15,1.63-0.44,2.31c-0.29,0.68-0.69,1.29-1.19,1.81c-0.5,0.53-1.09,0.98-1.75,1.35
		c-0.67,0.37-1.38,0.68-2.13,0.92c-0.75,0.24-1.53,0.42-2.32,0.54s-1.57,0.17-2.34,0.17c-1.65,0-3.18-0.07-4.56-0.22
		c-1.39-0.15-2.75-0.38-4.08-0.71v-3.89c1.43,0.41,2.85,0.71,4.26,0.92s2.82,0.32,4.21,0.32c2.03,0,3.53-0.28,4.5-0.83
		c0.97-0.55,1.46-1.34,1.46-2.36c0-0.44-0.08-0.83-0.23-1.18c-0.15-0.35-0.43-0.68-0.84-1c-0.41-0.32-1.03-0.65-1.89-0.99
		c-0.85-0.34-2.02-0.73-3.49-1.17c-1.1-0.32-2.12-0.69-3.05-1.11c-0.93-0.41-1.74-0.9-2.42-1.47c-0.68-0.57-1.22-1.23-1.61-2
		c-0.39-0.76-0.58-1.66-0.58-2.7c0-0.68,0.16-1.43,0.47-2.24s0.86-1.57,1.62-2.26c0.76-0.7,1.79-1.28,3.09-1.74s2.92-0.69,4.87-0.69
		c0.96,0,2.02,0.05,3.19,0.16c1.17,0.11,2.39,0.29,3.65,0.55v3.77c-1.33-0.32-2.59-0.56-3.79-0.72s-2.23-0.23-3.1-0.23
		c-1.05,0-1.94,0.08-2.67,0.24c-0.72,0.16-1.31,0.39-1.75,0.67s-0.77,0.62-0.96,1s-0.29,0.79-0.29,1.23c0,0.44,0.08,0.84,0.26,1.19
		c0.17,0.36,0.49,0.7,0.95,1.03c0.46,0.33,1.11,0.67,1.93,1c0.83,0.33,1.91,0.69,3.24,1.08c1.44,0.42,2.66,0.86,3.65,1.33
		c0.99,0.46,1.79,0.98,2.41,1.54c0.62,0.57,1.06,1.21,1.33,1.92C219.27,50.42,219.41,51.23,219.41,52.14z"/>
        <path d="M247.15,58.47c-0.96,0.24-1.95,0.42-2.97,0.52s-2.06,0.16-3.12,0.16c-3.07,0-5.36-0.69-6.86-2.08s-2.26-3.52-2.26-6.39
		V37.93h-6.84v-3.55h6.84v-6.72l4.24-1.1v7.81h10.98v3.55h-10.98v12.41c0,1.75,0.47,3.06,1.4,3.93c0.93,0.87,2.31,1.3,4.13,1.3
		c0.78,0,1.63-0.06,2.56-0.18s1.89-0.31,2.9-0.57V58.47z"/>
        <path d="M275.71,36.73c0,1.3-0.24,2.58-0.73,3.86c-0.49,1.27-1.24,2.41-2.26,3.42c-1.02,1.01-2.33,1.82-3.92,2.45
		c-1.59,0.62-3.49,0.94-5.7,0.94h-3.94v11.42h-4.33V27h8.96c1.57,0,3.08,0.17,4.53,0.52c1.44,0.35,2.71,0.91,3.81,1.69
		c1.1,0.78,1.97,1.79,2.62,3.02C275.38,33.47,275.71,34.97,275.71,36.73z M271.2,36.93c0-2.04-0.67-3.61-2.01-4.7
		c-1.34-1.09-3.21-1.63-5.61-1.63h-4.43v13.1h4.04c2.56,0,4.54-0.56,5.93-1.68C270.51,40.9,271.2,39.2,271.2,36.93z"/>
        <path d="M304.01,34.37l-8.32,21.86c-0.86,2.22-1.75,4.14-2.67,5.74s-1.92,2.92-3.01,3.96c-1.09,1.03-2.28,1.79-3.58,2.28
		c-1.3,0.49-2.75,0.73-4.36,0.73c-0.42,0-0.8-0.01-1.14-0.02c-0.34-0.02-0.71-0.04-1.12-0.07v-3.85c0.36,0.05,0.75,0.09,1.17,0.13
		c0.42,0.04,0.87,0.06,1.34,0.06c0.78,0,1.5-0.11,2.18-0.34c0.67-0.23,1.31-0.6,1.91-1.11c0.6-0.51,1.18-1.17,1.73-1.98
		c0.55-0.81,1.09-1.79,1.61-2.95l-9.76-24.44h4.82l6.18,16.16l1.24,3.8l1.41-3.89l5.72-16.06H304.01z"/>
</g>
    <g>
	<ellipse class="st1" cx="53.19" cy="50.26" rx="41.96" ry="41.44"/>
        <path class="st2" d="M59.75,76.76c8.92,3.62,22.09,3.91,23.19-8.28c1.01-11.09-6.96-22.41-14.14-30.06
		c-7.79-8.31-18.88-16.76-30.72-17.61c-9.2-0.66-14.71,5.57-13.74,14.55C25.82,49,36.74,61.58,47.29,69.53"/>
        <path class="st2" d="M60.01,23.66c8.84-4.01,15.32-3.97,19.69,0.4c7.32,7.32,1.57,24.92-12.83,39.32S34.86,83.52,27.55,76.2
		c-7.32-7.32-1.57-24.92,12.83-39.32c2.93-2.93,5.04-4.49,8.12-6.67"/>
        <g>
		<g>
			<g>
				<g>
					<g>
						<line class="st3" x1="84.67" y1="19.54" x2="94.85" y2="9.36"/>
                        <g>
							<g>
								<path class="st0" d="M97.97,12.85c1.82-1.82,1.82-4.78,0-6.6c-1.82-1.82-4.78-1.82-6.6,0c-1.82,1.82-1.82,4.78,0,6.6
									S96.14,14.68,97.97,12.85z"/>
                                <path d="M98.4,13.29c-2.06,2.06-5.42,2.06-7.48,0s-2.06-5.42,0-7.48c2.06-2.06,5.42-2.06,7.48,0S100.47,11.23,98.4,13.29
									C96.34,15.35,100.47,11.23,98.4,13.29z M91.8,6.69c-1.58,1.58-1.58,4.15,0,5.73c1.58,1.58,4.15,1.58,5.73,0
									c1.58-1.58,1.58-4.15,0-5.73C95.95,5.11,93.38,5.11,91.8,6.69C90.22,8.27,93.38,5.11,91.8,6.69z"/>
							</g>
						</g>
					</g>
				</g>
			</g>
            <g>
				<g>
					<g>
						<line class="st3" x1="23.02" y1="81.2" x2="12.84" y2="91.37"/>
                        <g>
							<g>
								<path class="st0" d="M9.72,87.88c-1.82,1.82-1.82,4.78,0,6.6s4.78,1.82,6.6,0c1.82-1.82,1.82-4.78,0-6.6
									C14.5,86.06,11.55,86.06,9.72,87.88z"/>
                                <path d="M9.28,87.45c2.06-2.06,5.42-2.06,7.48,0c2.06,2.06,2.06,5.42,0,7.48c-2.06,2.06-5.42,2.06-7.48,0
									S7.22,89.51,9.28,87.45C11.35,85.38,7.22,89.51,9.28,87.45z M15.89,94.05c1.58-1.58,1.58-4.15,0-5.73s-4.15-1.58-5.73,0
									c-1.58,1.58-1.58,4.15,0,5.73S14.31,95.63,15.89,94.05C17.47,92.47,14.31,95.63,15.89,94.05z"/>
							</g>
						</g>
					</g>
				</g>
			</g>
		</g>
	</g>
        <g>
		<circle class="st4" cx="54.47" cy="50.47" r="13.93"/>
            <polyline class="st5" points="41.31,50.46 46.29,50.41 46.29,50.41 49.44,41.35 49.44,41.35 49.26,58.4 53.81,44.63 53.81,44.63
			54.29,52.03 54.62,50.26 67.85,50.14 		"/>
	</g>
</g>
    <g>
	<path d="M120.9,75.71v3.77h-0.86v-3.77h-1.22v-0.7h3.31v0.7H120.9z"/>
        <path d="M125.92,77.73c0,0.27-0.04,0.51-0.11,0.73c-0.08,0.22-0.18,0.41-0.32,0.57s-0.31,0.28-0.52,0.37s-0.43,0.13-0.69,0.13
		c-0.25,0-0.47-0.04-0.66-0.11c-0.19-0.08-0.36-0.19-0.5-0.34c-0.14-0.15-0.24-0.33-0.31-0.55c-0.07-0.22-0.11-0.47-0.11-0.76
		c0-0.27,0.04-0.51,0.11-0.73s0.18-0.41,0.32-0.57s0.31-0.28,0.52-0.37s0.43-0.13,0.69-0.13c0.25,0,0.47,0.04,0.66,0.11
		c0.19,0.08,0.36,0.19,0.5,0.33c0.14,0.15,0.24,0.33,0.31,0.55C125.89,77.2,125.92,77.45,125.92,77.73z M125.32,77.76
		c0-0.21-0.02-0.4-0.07-0.56c-0.05-0.16-0.11-0.29-0.2-0.4c-0.09-0.11-0.19-0.19-0.32-0.24c-0.12-0.05-0.26-0.08-0.42-0.08
		c-0.18,0-0.33,0.04-0.46,0.1c-0.13,0.07-0.23,0.16-0.31,0.28c-0.08,0.12-0.14,0.25-0.18,0.41c-0.04,0.15-0.06,0.31-0.06,0.48
		c0,0.21,0.02,0.4,0.07,0.56c0.05,0.16,0.11,0.29,0.2,0.4c0.09,0.11,0.19,0.19,0.31,0.24s0.26,0.08,0.42,0.08
		c0.18,0,0.33-0.03,0.46-0.1c0.13-0.07,0.23-0.16,0.31-0.28c0.08-0.12,0.14-0.25,0.18-0.4C125.3,78.09,125.32,77.93,125.32,77.76z"
        />
        <path d="M129.77,77.73c0,0.27-0.04,0.51-0.11,0.73c-0.08,0.22-0.18,0.41-0.32,0.57s-0.31,0.28-0.52,0.37s-0.43,0.13-0.69,0.13
		c-0.25,0-0.47-0.04-0.66-0.11c-0.19-0.08-0.36-0.19-0.5-0.34c-0.14-0.15-0.24-0.33-0.31-0.55c-0.07-0.22-0.11-0.47-0.11-0.76
		c0-0.27,0.04-0.51,0.11-0.73s0.18-0.41,0.32-0.57s0.31-0.28,0.52-0.37s0.43-0.13,0.69-0.13c0.25,0,0.47,0.04,0.66,0.11
		c0.19,0.08,0.36,0.19,0.5,0.33c0.14,0.15,0.24,0.33,0.31,0.55C129.74,77.2,129.77,77.45,129.77,77.73z M129.16,77.76
		c0-0.21-0.02-0.4-0.07-0.56c-0.05-0.16-0.11-0.29-0.2-0.4c-0.09-0.11-0.19-0.19-0.32-0.24c-0.12-0.05-0.26-0.08-0.42-0.08
		c-0.18,0-0.33,0.04-0.46,0.1c-0.13,0.07-0.23,0.16-0.31,0.28c-0.08,0.12-0.14,0.25-0.18,0.41c-0.04,0.15-0.06,0.31-0.06,0.48
		c0,0.21,0.02,0.4,0.07,0.56c0.05,0.16,0.11,0.29,0.2,0.4c0.09,0.11,0.19,0.19,0.31,0.24s0.26,0.08,0.42,0.08
		c0.18,0,0.33-0.03,0.46-0.1c0.13-0.07,0.23-0.16,0.31-0.28c0.08-0.12,0.14-0.25,0.18-0.4C129.15,78.09,129.16,77.93,129.16,77.76z"
        />
        <path d="M131.8,75.13h-1.02v-0.49h1.62v4.33h1.02v0.5h-2.75v-0.5h1.13V75.13z"/>
        <path d="M137.42,77.7c0,0.29-0.04,0.54-0.12,0.76c-0.08,0.22-0.19,0.42-0.33,0.57c-0.14,0.16-0.32,0.28-0.53,0.36
		s-0.44,0.12-0.7,0.12c-0.2,0-0.41-0.02-0.62-0.06c-0.21-0.04-0.42-0.1-0.63-0.18v-4.63h0.59v1.33l-0.03,0.64
		c0.17-0.23,0.35-0.39,0.55-0.49c0.19-0.09,0.4-0.14,0.63-0.14c0.2,0,0.37,0.04,0.52,0.12s0.27,0.2,0.37,0.35s0.18,0.33,0.23,0.54
		S137.42,77.44,137.42,77.7z M136.81,77.72c0-0.18-0.01-0.35-0.04-0.5c-0.03-0.15-0.07-0.28-0.12-0.39s-0.13-0.19-0.22-0.25
		s-0.19-0.09-0.32-0.09c-0.08,0-0.15,0.01-0.23,0.04c-0.08,0.02-0.16,0.06-0.24,0.12c-0.08,0.06-0.17,0.13-0.26,0.22
		c-0.09,0.09-0.19,0.21-0.3,0.34v1.66c0.12,0.05,0.23,0.08,0.36,0.11s0.24,0.04,0.35,0.04c0.14,0,0.27-0.02,0.39-0.06
		c0.12-0.04,0.23-0.12,0.33-0.22c0.09-0.1,0.17-0.24,0.23-0.4C136.78,78.18,136.81,77.97,136.81,77.72z"/>
        <path d="M141.32,77.73c0,0.27-0.04,0.51-0.11,0.73c-0.08,0.22-0.18,0.41-0.32,0.57s-0.31,0.28-0.52,0.37s-0.43,0.13-0.69,0.13
		c-0.25,0-0.47-0.04-0.66-0.11c-0.19-0.08-0.36-0.19-0.5-0.34c-0.14-0.15-0.24-0.33-0.31-0.55c-0.07-0.22-0.11-0.47-0.11-0.76
		c0-0.27,0.04-0.51,0.11-0.73s0.18-0.41,0.32-0.57s0.31-0.28,0.52-0.37s0.43-0.13,0.69-0.13c0.25,0,0.47,0.04,0.66,0.11
		c0.19,0.08,0.36,0.19,0.5,0.33c0.14,0.15,0.24,0.33,0.31,0.55C141.28,77.2,141.32,77.45,141.32,77.73z M140.71,77.76
		c0-0.21-0.02-0.4-0.07-0.56c-0.05-0.16-0.11-0.29-0.2-0.4c-0.09-0.11-0.19-0.19-0.32-0.24c-0.12-0.05-0.26-0.08-0.42-0.08
		c-0.18,0-0.33,0.04-0.46,0.1c-0.13,0.07-0.23,0.16-0.31,0.28c-0.08,0.12-0.14,0.25-0.18,0.41c-0.04,0.15-0.06,0.31-0.06,0.48
		c0,0.21,0.02,0.4,0.07,0.56c0.05,0.16,0.11,0.29,0.2,0.4c0.09,0.11,0.19,0.19,0.31,0.24s0.26,0.08,0.42,0.08
		c0.18,0,0.33-0.03,0.46-0.1c0.13-0.07,0.23-0.16,0.31-0.28c0.08-0.12,0.14-0.25,0.18-0.4C140.69,78.09,140.71,77.93,140.71,77.76z"
        />
        <path d="M145.27,79.47h-0.79l-0.93-1.31l-0.92,1.31h-0.77l1.33-1.72l-1.27-1.71h0.76l0.9,1.32l0.89-1.32h0.73l-1.29,1.72
		L145.27,79.47z"/>
        <path d="M152.92,75.2c-0.31-0.07-0.58-0.1-0.81-0.1c-0.54,0-0.8,0.28-0.8,0.84v0.6h1.5v0.5h-1.5v2.44h-0.6v-2.44h-1.1v-0.5h1.1
		v-0.57c0-0.91,0.48-1.37,1.43-1.37c0.24,0,0.5,0.03,0.79,0.08V75.2z"/>
        <path d="M156.71,77.73c0,0.27-0.04,0.51-0.11,0.73c-0.08,0.22-0.18,0.41-0.33,0.57c-0.14,0.16-0.31,0.28-0.52,0.37
		s-0.43,0.13-0.69,0.13c-0.25,0-0.47-0.04-0.66-0.11c-0.19-0.08-0.36-0.19-0.5-0.34c-0.14-0.15-0.24-0.33-0.31-0.55
		c-0.07-0.22-0.11-0.47-0.11-0.76c0-0.27,0.04-0.51,0.11-0.73s0.18-0.41,0.32-0.57s0.31-0.28,0.52-0.37s0.43-0.13,0.69-0.13
		c0.25,0,0.47,0.04,0.66,0.11c0.19,0.08,0.36,0.19,0.5,0.33c0.13,0.15,0.24,0.33,0.31,0.55S156.71,77.45,156.71,77.73z
		 M156.11,77.76c0-0.21-0.02-0.4-0.07-0.56s-0.11-0.29-0.2-0.4c-0.09-0.11-0.19-0.19-0.32-0.24c-0.12-0.05-0.26-0.08-0.42-0.08
		c-0.18,0-0.33,0.04-0.46,0.1c-0.13,0.07-0.23,0.16-0.31,0.28c-0.08,0.12-0.14,0.25-0.18,0.41c-0.04,0.15-0.06,0.31-0.06,0.48
		c0,0.21,0.02,0.4,0.07,0.56c0.05,0.16,0.11,0.29,0.2,0.4c0.09,0.11,0.19,0.19,0.31,0.24s0.26,0.08,0.42,0.08
		c0.18,0,0.33-0.03,0.46-0.1c0.13-0.07,0.23-0.16,0.31-0.28c0.08-0.12,0.14-0.25,0.18-0.4C156.09,78.09,156.11,77.93,156.11,77.76z"
        />
        <path d="M157.71,76.04h0.54l0.02,0.63c0.2-0.24,0.4-0.42,0.6-0.53s0.4-0.16,0.6-0.16c0.36,0,0.62,0.12,0.81,0.34
		c0.18,0.23,0.27,0.57,0.25,1.03h-0.6c0.01-0.3-0.04-0.52-0.13-0.65s-0.23-0.2-0.42-0.2c-0.08,0-0.16,0.01-0.24,0.04
		s-0.16,0.07-0.25,0.14c-0.09,0.06-0.18,0.14-0.27,0.24c-0.1,0.1-0.2,0.22-0.31,0.36v2.21h-0.6V76.04z"/>
        <path d="M168.21,79.47h-0.99l-0.44-1.38l-0.16-0.56l-0.15,0.57l-0.43,1.36h-0.95l-0.25-4.47h0.74l0.11,2.86l0.03,0.78l0.2-0.7
		l0.49-1.59h0.53l0.52,1.69l0.17,0.59l0.01-0.7l0.11-2.94h0.71L168.21,79.47z"/>
        <path d="M171.33,79.47l-0.01-0.46c-0.19,0.18-0.38,0.32-0.57,0.4s-0.4,0.12-0.61,0.12c-0.2,0-0.36-0.03-0.5-0.08
		s-0.25-0.12-0.34-0.21s-0.16-0.19-0.2-0.31c-0.04-0.12-0.06-0.25-0.06-0.39c0-0.34,0.13-0.61,0.38-0.81
		c0.26-0.19,0.64-0.29,1.14-0.29h0.71v-0.3c0-0.2-0.07-0.37-0.19-0.49c-0.13-0.12-0.33-0.18-0.6-0.18c-0.19,0-0.38,0.02-0.57,0.07
		c-0.19,0.04-0.38,0.1-0.58,0.18V76.2c0.07-0.03,0.16-0.05,0.25-0.08c0.09-0.03,0.19-0.05,0.29-0.07s0.21-0.04,0.32-0.05
		s0.22-0.02,0.34-0.02c0.21,0,0.39,0.02,0.56,0.07c0.17,0.05,0.31,0.12,0.42,0.21c0.12,0.09,0.2,0.21,0.26,0.35s0.09,0.31,0.09,0.5
		v2.37H171.33z M171.26,77.91h-0.75c-0.15,0-0.28,0.02-0.38,0.04c-0.11,0.03-0.2,0.07-0.26,0.13s-0.12,0.12-0.15,0.2
		s-0.05,0.16-0.05,0.26c0,0.07,0.01,0.13,0.03,0.19s0.05,0.11,0.1,0.16c0.05,0.05,0.11,0.08,0.18,0.11
		c0.07,0.03,0.16,0.04,0.27,0.04c0.14,0,0.29-0.04,0.47-0.12s0.36-0.21,0.56-0.39V77.91z"/>
        <path d="M172.65,76.04h0.68l0.84,2.27l0.18,0.55l0.19-0.57l0.83-2.26h0.65l-1.35,3.43h-0.68L172.65,76.04z"/>
        <path d="M179.72,77.58c0,0.08,0,0.15,0,0.21c0,0.06,0,0.11-0.01,0.16h-2.41c0,0.35,0.1,0.62,0.29,0.81
		c0.2,0.19,0.48,0.28,0.85,0.28c0.1,0,0.2,0,0.3-0.01c0.1-0.01,0.2-0.02,0.29-0.03s0.18-0.03,0.27-0.05
		c0.08-0.02,0.16-0.04,0.24-0.06v0.49c-0.16,0.04-0.34,0.08-0.55,0.11s-0.42,0.04-0.63,0.04c-0.29,0-0.55-0.04-0.76-0.12
		c-0.21-0.08-0.39-0.2-0.52-0.35s-0.24-0.34-0.3-0.56c-0.06-0.22-0.1-0.47-0.1-0.75c0-0.24,0.03-0.47,0.1-0.69
		c0.07-0.21,0.17-0.4,0.3-0.57c0.13-0.16,0.3-0.29,0.49-0.39s0.41-0.14,0.66-0.14c0.24,0,0.45,0.04,0.63,0.11
		c0.19,0.08,0.34,0.18,0.47,0.32c0.13,0.14,0.22,0.3,0.29,0.5C179.68,77.11,179.72,77.33,179.72,77.58z M179.1,77.49
		c0.01-0.15-0.01-0.29-0.04-0.42c-0.04-0.13-0.09-0.24-0.17-0.33s-0.17-0.16-0.29-0.21c-0.11-0.05-0.25-0.08-0.4-0.08
		c-0.13,0-0.25,0.02-0.36,0.07c-0.11,0.05-0.2,0.12-0.28,0.21c-0.08,0.09-0.14,0.2-0.19,0.33c-0.05,0.13-0.08,0.27-0.09,0.42H179.1z
		"/>
        <path d="M183.71,75.2c-0.31-0.07-0.58-0.1-0.81-0.1c-0.54,0-0.8,0.28-0.8,0.84v0.6h1.5v0.5h-1.5v2.44h-0.61v-2.44h-1.1v-0.5h1.1
		v-0.57c0-0.91,0.48-1.37,1.43-1.37c0.24,0,0.5,0.03,0.79,0.08V75.2z"/>
        <path d="M185.68,76.53h-1.01v-0.49h1.62v2.94h1.02v0.5h-2.75v-0.5h1.13V76.53z M185.89,74.6c0.07,0,0.13,0.01,0.19,0.04
		c0.06,0.02,0.11,0.06,0.15,0.1c0.04,0.04,0.08,0.09,0.1,0.15c0.02,0.06,0.04,0.12,0.04,0.18c0,0.06-0.01,0.12-0.04,0.18
		c-0.02,0.06-0.06,0.11-0.1,0.15c-0.04,0.04-0.09,0.08-0.15,0.1c-0.06,0.02-0.12,0.04-0.19,0.04c-0.07,0-0.13-0.01-0.18-0.04
		c-0.06-0.02-0.11-0.06-0.15-0.1c-0.04-0.04-0.08-0.09-0.1-0.15c-0.02-0.06-0.04-0.12-0.04-0.18c0-0.07,0.01-0.13,0.04-0.18
		c0.02-0.06,0.06-0.11,0.1-0.15c0.04-0.04,0.09-0.08,0.15-0.1C185.77,74.61,185.83,74.6,185.89,74.6z"/>
        <path d="M191.26,77.58c0,0.08,0,0.15,0,0.21c0,0.06,0,0.11-0.01,0.16h-2.41c0,0.35,0.1,0.62,0.29,0.81
		c0.2,0.19,0.48,0.28,0.85,0.28c0.1,0,0.2,0,0.3-0.01c0.1-0.01,0.2-0.02,0.29-0.03s0.18-0.03,0.27-0.05
		c0.08-0.02,0.16-0.04,0.24-0.06v0.49c-0.16,0.04-0.34,0.08-0.55,0.11s-0.42,0.04-0.63,0.04c-0.29,0-0.55-0.04-0.76-0.12
		c-0.21-0.08-0.39-0.2-0.52-0.35s-0.24-0.34-0.3-0.56c-0.06-0.22-0.1-0.47-0.1-0.75c0-0.24,0.03-0.47,0.1-0.69
		c0.07-0.21,0.17-0.4,0.3-0.57c0.13-0.16,0.3-0.29,0.49-0.39s0.41-0.14,0.66-0.14c0.24,0,0.45,0.04,0.63,0.11
		c0.19,0.08,0.34,0.18,0.47,0.32c0.13,0.14,0.22,0.3,0.29,0.5C191.23,77.11,191.26,77.33,191.26,77.58z M190.64,77.49
		c0.01-0.15-0.01-0.29-0.04-0.42c-0.04-0.13-0.09-0.24-0.17-0.33s-0.17-0.16-0.29-0.21c-0.11-0.05-0.25-0.08-0.4-0.08
		c-0.13,0-0.25,0.02-0.36,0.07c-0.11,0.05-0.2,0.12-0.28,0.21c-0.08,0.09-0.14,0.2-0.19,0.33c-0.05,0.13-0.08,0.27-0.09,0.42H190.64
		z"/>
        <path d="M193.38,75.13h-1.01v-0.49h1.62v4.33h1.02v0.5h-2.75v-0.5h1.13V75.13z"/>
        <path d="M195.89,77.83c0-0.29,0.04-0.55,0.12-0.78s0.19-0.42,0.34-0.57c0.15-0.16,0.32-0.27,0.53-0.36s0.44-0.12,0.69-0.12
		c0.11,0,0.22,0.01,0.32,0.02c0.11,0.01,0.21,0.04,0.31,0.07v-1.44h0.6v4.83h-0.53l-0.02-0.65c-0.17,0.24-0.35,0.42-0.54,0.54
		c-0.19,0.12-0.4,0.17-0.63,0.17c-0.2,0-0.37-0.04-0.52-0.12s-0.27-0.2-0.37-0.35c-0.1-0.15-0.17-0.33-0.22-0.54
		C195.91,78.32,195.89,78.08,195.89,77.83z M196.49,77.79c0,0.42,0.06,0.72,0.18,0.93s0.29,0.31,0.52,0.31
		c0.15,0,0.31-0.07,0.48-0.2c0.17-0.13,0.34-0.33,0.53-0.6v-1.59c-0.1-0.05-0.21-0.08-0.33-0.1c-0.12-0.02-0.24-0.04-0.35-0.04
		c-0.32,0-0.58,0.1-0.76,0.31C196.58,77.02,196.49,77.34,196.49,77.79z"/>
        <path d="M203.72,75.69v-0.69h2.82v0.69h-0.98v3.09h0.98v0.69h-2.82v-0.69h0.98v-3.09H203.72z"/>
        <path d="M207.61,76.04h0.53l0.02,0.55c0.1-0.12,0.2-0.22,0.29-0.3c0.09-0.08,0.19-0.14,0.28-0.19s0.18-0.08,0.28-0.1
		s0.19-0.03,0.29-0.03c0.35,0,0.62,0.1,0.8,0.31c0.18,0.21,0.27,0.52,0.27,0.94v2.24h-0.59v-2.19c0-0.27-0.05-0.47-0.15-0.6
		c-0.1-0.13-0.25-0.19-0.45-0.19c-0.07,0-0.14,0.01-0.21,0.03s-0.14,0.06-0.22,0.11s-0.16,0.13-0.24,0.22s-0.19,0.21-0.3,0.34v2.28
		h-0.59V76.04z"/>
        <path d="M214.35,77.58c0,0.08,0,0.15,0,0.21c0,0.06,0,0.11-0.01,0.16h-2.41c0,0.35,0.1,0.62,0.29,0.81
		c0.2,0.19,0.48,0.28,0.85,0.28c0.1,0,0.2,0,0.3-0.01c0.1-0.01,0.2-0.02,0.29-0.03s0.18-0.03,0.27-0.05
		c0.08-0.02,0.16-0.04,0.24-0.06v0.49c-0.16,0.04-0.34,0.08-0.55,0.11s-0.42,0.04-0.63,0.04c-0.29,0-0.55-0.04-0.76-0.12
		c-0.21-0.08-0.39-0.2-0.52-0.35s-0.24-0.34-0.3-0.56c-0.06-0.22-0.1-0.47-0.1-0.75c0-0.24,0.03-0.47,0.1-0.69
		c0.07-0.21,0.17-0.4,0.3-0.57c0.13-0.16,0.3-0.29,0.49-0.39s0.41-0.14,0.66-0.14c0.24,0,0.45,0.04,0.63,0.11
		c0.19,0.08,0.34,0.18,0.47,0.32c0.13,0.14,0.22,0.3,0.29,0.5C214.32,77.11,214.35,77.33,214.35,77.58z M213.73,77.49
		c0.01-0.15-0.01-0.29-0.04-0.42c-0.04-0.13-0.09-0.24-0.17-0.33s-0.17-0.16-0.29-0.21c-0.11-0.05-0.25-0.08-0.4-0.08
		c-0.13,0-0.25,0.02-0.36,0.07c-0.11,0.05-0.2,0.12-0.28,0.21c-0.08,0.09-0.14,0.2-0.19,0.33c-0.05,0.13-0.08,0.27-0.09,0.42H213.73
		z"/>
        <path d="M215.45,76.04h0.54l0.02,0.63c0.2-0.24,0.4-0.42,0.6-0.53s0.4-0.16,0.6-0.16c0.36,0,0.62,0.12,0.81,0.34
		c0.18,0.23,0.27,0.57,0.25,1.03h-0.6c0.01-0.3-0.04-0.52-0.13-0.65s-0.23-0.2-0.42-0.2c-0.08,0-0.16,0.01-0.24,0.04
		s-0.16,0.07-0.25,0.14c-0.09,0.06-0.18,0.14-0.27,0.24c-0.1,0.1-0.2,0.22-0.31,0.36v2.21h-0.6V76.04z"/>
        <path d="M221.92,79.42c-0.13,0.03-0.27,0.06-0.42,0.07c-0.14,0.01-0.29,0.02-0.44,0.02c-0.43,0-0.75-0.1-0.96-0.29
		c-0.21-0.2-0.32-0.49-0.32-0.9v-1.79h-0.96v-0.5h0.96V75.1l0.59-0.15v1.1h1.54v0.5h-1.54v1.74c0,0.25,0.07,0.43,0.2,0.55
		s0.32,0.18,0.58,0.18c0.11,0,0.23-0.01,0.36-0.03c0.13-0.02,0.27-0.04,0.41-0.08V79.42z"/>
        <path d="M224.17,76.53h-1.01v-0.49h1.62v2.94h1.02v0.5h-2.75v-0.5h1.13V76.53z M224.38,74.6c0.07,0,0.13,0.01,0.19,0.04
		c0.06,0.02,0.11,0.06,0.15,0.1c0.04,0.04,0.08,0.09,0.1,0.15c0.02,0.06,0.04,0.12,0.04,0.18c0,0.06-0.01,0.12-0.04,0.18
		c-0.02,0.06-0.06,0.11-0.1,0.15c-0.04,0.04-0.09,0.08-0.15,0.1c-0.06,0.02-0.12,0.04-0.19,0.04c-0.07,0-0.13-0.01-0.18-0.04
		c-0.06-0.02-0.11-0.06-0.15-0.1c-0.04-0.04-0.08-0.09-0.1-0.15c-0.02-0.06-0.04-0.12-0.04-0.18c0-0.07,0.01-0.13,0.04-0.18
		c0.02-0.06,0.06-0.11,0.1-0.15c0.04-0.04,0.09-0.08,0.15-0.1C224.25,74.61,224.31,74.6,224.38,74.6z"/>
        <path d="M229.05,79.47l-0.01-0.46c-0.19,0.18-0.38,0.32-0.57,0.4s-0.4,0.12-0.61,0.12c-0.2,0-0.36-0.03-0.5-0.08
		s-0.25-0.12-0.34-0.21s-0.16-0.19-0.2-0.31c-0.04-0.12-0.06-0.25-0.06-0.39c0-0.34,0.13-0.61,0.38-0.81
		c0.26-0.19,0.64-0.29,1.14-0.29h0.71v-0.3c0-0.2-0.07-0.37-0.19-0.49c-0.13-0.12-0.33-0.18-0.6-0.18c-0.19,0-0.38,0.02-0.57,0.07
		c-0.19,0.04-0.38,0.1-0.58,0.18V76.2c0.07-0.03,0.16-0.05,0.25-0.08c0.09-0.03,0.19-0.05,0.29-0.07s0.21-0.04,0.32-0.05
		s0.22-0.02,0.34-0.02c0.21,0,0.39,0.02,0.56,0.07c0.17,0.05,0.31,0.12,0.42,0.21c0.12,0.09,0.2,0.21,0.26,0.35s0.09,0.31,0.09,0.5
		v2.37H229.05z M228.99,77.91h-0.75c-0.15,0-0.28,0.02-0.38,0.04c-0.11,0.03-0.2,0.07-0.26,0.13s-0.12,0.12-0.15,0.2
		s-0.05,0.16-0.05,0.26c0,0.07,0.01,0.13,0.03,0.19s0.05,0.11,0.1,0.16c0.05,0.05,0.11,0.08,0.18,0.11
		c0.07,0.03,0.16,0.04,0.27,0.04c0.14,0,0.29-0.04,0.47-0.12s0.36-0.21,0.56-0.39V77.91z"/>
        <path d="M231.87,75.13h-1.01v-0.49h1.62v4.33h1.02v0.5h-2.75v-0.5h1.13V75.13z"/>
        <path d="M241.34,78.12c0,0.24-0.04,0.46-0.13,0.63c-0.09,0.18-0.22,0.33-0.38,0.45s-0.35,0.21-0.58,0.26
		c-0.22,0.06-0.47,0.08-0.73,0.08c-0.23,0-0.46-0.01-0.68-0.04s-0.44-0.07-0.65-0.14v-0.83c0.1,0.04,0.21,0.07,0.33,0.1
		s0.23,0.06,0.34,0.08c0.12,0.02,0.23,0.04,0.34,0.06c0.11,0.01,0.22,0.02,0.33,0.02c0.16,0,0.29-0.01,0.41-0.04
		c0.11-0.03,0.2-0.07,0.27-0.11c0.07-0.05,0.12-0.1,0.15-0.17s0.05-0.14,0.05-0.22c0-0.11-0.03-0.2-0.09-0.28s-0.15-0.14-0.25-0.2
		s-0.22-0.11-0.35-0.15c-0.13-0.04-0.26-0.09-0.4-0.15s-0.27-0.11-0.4-0.18s-0.25-0.15-0.35-0.25c-0.1-0.1-0.18-0.21-0.25-0.35
		s-0.09-0.3-0.09-0.49c0-0.18,0.03-0.34,0.1-0.5c0.06-0.16,0.16-0.29,0.3-0.41s0.31-0.21,0.53-0.28c0.21-0.07,0.47-0.1,0.78-0.1
		c0.09,0,0.18,0,0.28,0.01s0.19,0.02,0.29,0.03s0.19,0.03,0.27,0.04c0.09,0.02,0.17,0.03,0.24,0.05v0.77
		c-0.07-0.03-0.15-0.05-0.24-0.08c-0.09-0.02-0.18-0.04-0.27-0.06c-0.09-0.02-0.18-0.03-0.28-0.04s-0.18-0.01-0.27-0.01
		c-0.15,0-0.27,0.01-0.38,0.04c-0.1,0.02-0.19,0.06-0.25,0.1s-0.11,0.09-0.14,0.16c-0.03,0.06-0.04,0.13-0.04,0.21
		c0,0.09,0.03,0.17,0.09,0.24s0.15,0.13,0.25,0.18s0.22,0.1,0.35,0.15s0.27,0.1,0.4,0.15s0.27,0.11,0.4,0.18s0.25,0.15,0.35,0.25
		c0.1,0.1,0.19,0.21,0.25,0.35C241.3,77.78,241.34,77.94,241.34,78.12z"/>
        <path d="M245.14,77.58c0,0.08,0,0.15,0,0.21c0,0.06,0,0.11-0.01,0.16h-2.41c0,0.35,0.1,0.62,0.29,0.81
		c0.2,0.19,0.48,0.28,0.85,0.28c0.1,0,0.2,0,0.3-0.01c0.1-0.01,0.2-0.02,0.29-0.03s0.18-0.03,0.27-0.05
		c0.08-0.02,0.16-0.04,0.24-0.06v0.49c-0.16,0.04-0.34,0.08-0.55,0.11s-0.42,0.04-0.63,0.04c-0.29,0-0.55-0.04-0.76-0.12
		c-0.21-0.08-0.39-0.2-0.52-0.35s-0.24-0.34-0.3-0.56c-0.06-0.22-0.1-0.47-0.1-0.75c0-0.24,0.03-0.47,0.1-0.69
		c0.07-0.21,0.17-0.4,0.3-0.57c0.13-0.16,0.3-0.29,0.49-0.39s0.41-0.14,0.66-0.14c0.24,0,0.45,0.04,0.63,0.11
		c0.19,0.08,0.34,0.18,0.47,0.32c0.13,0.14,0.22,0.3,0.29,0.5C245.11,77.11,245.14,77.33,245.14,77.58z M244.52,77.49
		c0.01-0.15-0.01-0.29-0.04-0.42c-0.04-0.13-0.09-0.24-0.17-0.33s-0.17-0.16-0.29-0.21c-0.11-0.05-0.25-0.08-0.4-0.08
		c-0.13,0-0.25,0.02-0.36,0.07c-0.11,0.05-0.2,0.12-0.28,0.21c-0.08,0.09-0.14,0.2-0.19,0.33c-0.05,0.13-0.08,0.27-0.09,0.42H244.52
		z"/>
        <path d="M246.09,76.04h0.53l0.02,0.55c0.1-0.12,0.2-0.22,0.29-0.3c0.09-0.08,0.19-0.14,0.28-0.19s0.18-0.08,0.28-0.1
		s0.19-0.03,0.29-0.03c0.35,0,0.62,0.1,0.8,0.31c0.18,0.21,0.27,0.52,0.27,0.94v2.24h-0.59v-2.19c0-0.27-0.05-0.47-0.15-0.6
		c-0.1-0.13-0.25-0.19-0.45-0.19c-0.07,0-0.14,0.01-0.21,0.03s-0.14,0.06-0.22,0.11s-0.16,0.13-0.24,0.22s-0.19,0.21-0.3,0.34v2.28
		h-0.59V76.04z"/>
        <path d="M252.66,78.54c0,0.12-0.02,0.23-0.06,0.33s-0.1,0.18-0.17,0.25s-0.15,0.14-0.25,0.19c-0.09,0.05-0.19,0.1-0.3,0.13
		c-0.11,0.03-0.21,0.06-0.33,0.07c-0.11,0.02-0.22,0.02-0.33,0.02c-0.23,0-0.45-0.01-0.64-0.03c-0.19-0.02-0.39-0.05-0.57-0.1v-0.55
		c0.2,0.06,0.4,0.1,0.6,0.13c0.2,0.03,0.39,0.04,0.59,0.04c0.29,0,0.5-0.04,0.63-0.12c0.14-0.08,0.21-0.19,0.21-0.33
		c0-0.06-0.01-0.12-0.03-0.17s-0.06-0.1-0.12-0.14c-0.06-0.04-0.14-0.09-0.26-0.14c-0.12-0.05-0.28-0.1-0.49-0.16
		c-0.16-0.05-0.3-0.1-0.43-0.16c-0.13-0.06-0.24-0.13-0.34-0.21s-0.17-0.17-0.23-0.28s-0.08-0.23-0.08-0.38
		c0-0.1,0.02-0.2,0.07-0.31c0.04-0.11,0.12-0.22,0.23-0.32c0.11-0.1,0.25-0.18,0.43-0.24c0.18-0.07,0.41-0.1,0.68-0.1
		c0.13,0,0.28,0.01,0.45,0.02s0.34,0.04,0.51,0.08v0.53c-0.19-0.05-0.36-0.08-0.53-0.1c-0.17-0.02-0.31-0.03-0.44-0.03
		c-0.15,0-0.27,0.01-0.37,0.04c-0.1,0.02-0.18,0.05-0.25,0.09s-0.11,0.09-0.13,0.14s-0.04,0.11-0.04,0.17s0.01,0.12,0.04,0.17
		c0.02,0.05,0.07,0.1,0.13,0.14c0.06,0.05,0.16,0.09,0.27,0.14s0.27,0.1,0.45,0.15c0.2,0.06,0.37,0.12,0.51,0.19
		c0.14,0.07,0.25,0.14,0.34,0.22c0.09,0.08,0.15,0.17,0.19,0.27C252.64,78.29,252.66,78.41,252.66,78.54z"/>
        <path d="M254.96,76.53h-1.01v-0.49h1.62v2.94h1.02v0.5h-2.75v-0.5h1.13V76.53z M255.17,74.6c0.07,0,0.13,0.01,0.19,0.04
		c0.06,0.02,0.11,0.06,0.15,0.1c0.04,0.04,0.08,0.09,0.1,0.15c0.02,0.06,0.04,0.12,0.04,0.18c0,0.06-0.01,0.12-0.04,0.18
		c-0.02,0.06-0.06,0.11-0.1,0.15c-0.04,0.04-0.09,0.08-0.15,0.1c-0.06,0.02-0.12,0.04-0.19,0.04c-0.07,0-0.13-0.01-0.18-0.04
		c-0.06-0.02-0.11-0.06-0.15-0.1c-0.04-0.04-0.08-0.09-0.1-0.15c-0.02-0.06-0.04-0.12-0.04-0.18c0-0.07,0.01-0.13,0.04-0.18
		c0.02-0.06,0.06-0.11,0.1-0.15c0.04-0.04,0.09-0.08,0.15-0.1C255.04,74.61,255.1,74.6,255.17,74.6z"/>
        <path d="M257.64,76.04h0.53l0.02,0.55c0.1-0.12,0.2-0.22,0.29-0.3c0.09-0.08,0.19-0.14,0.28-0.19s0.18-0.08,0.28-0.1
		s0.19-0.03,0.29-0.03c0.35,0,0.62,0.1,0.8,0.31c0.18,0.21,0.27,0.52,0.27,0.94v2.24h-0.59v-2.19c0-0.27-0.05-0.47-0.15-0.6
		c-0.1-0.13-0.25-0.19-0.45-0.19c-0.07,0-0.14,0.01-0.21,0.03s-0.14,0.06-0.22,0.11s-0.16,0.13-0.24,0.22s-0.19,0.21-0.3,0.34v2.28
		h-0.59V76.04z"/>
        <path d="M263.96,76.53c0.06,0.08,0.11,0.17,0.15,0.28c0.04,0.11,0.05,0.22,0.05,0.34c0,0.18-0.03,0.34-0.1,0.49
		c-0.06,0.15-0.16,0.27-0.27,0.38c-0.12,0.1-0.26,0.19-0.43,0.24c-0.17,0.06-0.35,0.09-0.54,0.09c-0.14,0-0.28-0.02-0.4-0.05
		c-0.12-0.03-0.22-0.07-0.3-0.12c-0.04,0.06-0.08,0.12-0.11,0.18s-0.04,0.12-0.04,0.19c0,0.09,0.04,0.16,0.12,0.21
		c0.08,0.06,0.19,0.09,0.33,0.09l0.9,0.03c0.17,0,0.33,0.03,0.47,0.06c0.14,0.04,0.27,0.09,0.37,0.17s0.18,0.16,0.24,0.27
		c0.06,0.11,0.09,0.23,0.09,0.37c0,0.15-0.03,0.3-0.1,0.43c-0.07,0.14-0.17,0.26-0.31,0.36s-0.31,0.19-0.52,0.25
		c-0.21,0.06-0.46,0.09-0.76,0.09c-0.28,0-0.51-0.02-0.71-0.07c-0.19-0.04-0.35-0.11-0.48-0.18c-0.12-0.08-0.22-0.17-0.27-0.28
		c-0.06-0.11-0.08-0.23-0.08-0.36c0-0.17,0.04-0.31,0.12-0.44s0.2-0.25,0.36-0.36c-0.06-0.03-0.11-0.06-0.15-0.1
		s-0.08-0.09-0.11-0.13s-0.05-0.1-0.06-0.16s-0.02-0.11-0.02-0.16c0-0.15,0.03-0.28,0.1-0.41s0.15-0.24,0.25-0.35
		c-0.04-0.05-0.08-0.1-0.11-0.15s-0.06-0.1-0.09-0.16c-0.02-0.06-0.04-0.12-0.05-0.19s-0.02-0.14-0.02-0.23
		c0-0.18,0.03-0.34,0.1-0.49c0.06-0.15,0.16-0.27,0.27-0.38c0.12-0.1,0.26-0.19,0.42-0.24c0.17-0.06,0.35-0.09,0.55-0.09
		c0.08,0,0.17,0.01,0.24,0.02c0.08,0.01,0.15,0.03,0.21,0.04h1.24v0.49H263.96z M261.89,79.97c0,0.16,0.08,0.28,0.25,0.35
		c0.17,0.07,0.4,0.11,0.7,0.11c0.19,0,0.35-0.02,0.48-0.05s0.23-0.08,0.31-0.13c0.08-0.06,0.14-0.12,0.17-0.19
		c0.04-0.07,0.05-0.15,0.05-0.22c0-0.14-0.06-0.24-0.17-0.31s-0.29-0.1-0.52-0.12l-0.89-0.03c-0.08,0.05-0.14,0.1-0.19,0.15
		s-0.09,0.1-0.11,0.15s-0.05,0.1-0.06,0.15S261.89,79.92,261.89,79.97z M262.08,77.16c0,0.11,0.02,0.21,0.05,0.3
		s0.09,0.17,0.15,0.23c0.07,0.06,0.14,0.11,0.23,0.15s0.19,0.05,0.3,0.05c0.12,0,0.22-0.02,0.32-0.06c0.09-0.04,0.17-0.09,0.23-0.16
		s0.11-0.15,0.14-0.24c0.03-0.09,0.05-0.18,0.05-0.28c0-0.11-0.02-0.21-0.05-0.3s-0.09-0.17-0.15-0.23
		c-0.07-0.06-0.14-0.11-0.23-0.15s-0.19-0.05-0.3-0.05c-0.12,0-0.22,0.02-0.32,0.06c-0.09,0.04-0.17,0.1-0.23,0.16
		s-0.11,0.15-0.14,0.23C262.09,76.97,262.08,77.07,262.08,77.16z"/>
        <path d="M270.99,75.71v3.77h-0.86v-3.77h-1.22v-0.7h3.31v0.7H270.99z"/>
        <path d="M275.93,77.58c0,0.08,0,0.15,0,0.21c0,0.06,0,0.11-0.01,0.16h-2.41c0,0.35,0.1,0.62,0.29,0.81
		c0.2,0.19,0.48,0.28,0.85,0.28c0.1,0,0.2,0,0.3-0.01c0.1-0.01,0.2-0.02,0.29-0.03s0.18-0.03,0.27-0.05
		c0.08-0.02,0.16-0.04,0.24-0.06v0.49c-0.16,0.04-0.34,0.08-0.55,0.11s-0.42,0.04-0.63,0.04c-0.29,0-0.55-0.04-0.76-0.12
		c-0.21-0.08-0.39-0.2-0.52-0.35s-0.24-0.34-0.3-0.56c-0.06-0.22-0.1-0.47-0.1-0.75c0-0.24,0.03-0.47,0.1-0.69
		c0.07-0.21,0.17-0.4,0.3-0.57c0.13-0.16,0.3-0.29,0.49-0.39s0.41-0.14,0.66-0.14c0.24,0,0.45,0.04,0.63,0.11
		c0.19,0.08,0.34,0.18,0.47,0.32c0.13,0.14,0.22,0.3,0.29,0.5C275.9,77.11,275.93,77.33,275.93,77.58z M275.31,77.49
		c0.01-0.15-0.01-0.29-0.04-0.42c-0.04-0.13-0.09-0.24-0.17-0.33s-0.17-0.16-0.29-0.21c-0.11-0.05-0.25-0.08-0.4-0.08
		c-0.13,0-0.25,0.02-0.36,0.07c-0.11,0.05-0.2,0.12-0.28,0.21c-0.08,0.09-0.14,0.2-0.19,0.33c-0.05,0.13-0.08,0.27-0.09,0.42H275.31
		z"/>
        <path d="M279.55,79.35c-0.16,0.06-0.31,0.1-0.48,0.13s-0.33,0.04-0.5,0.04c-0.54,0-0.96-0.15-1.25-0.44
		c-0.29-0.29-0.44-0.72-0.44-1.29c0-0.27,0.04-0.52,0.13-0.74c0.08-0.22,0.2-0.41,0.36-0.57c0.15-0.16,0.34-0.28,0.55-0.36
		c0.21-0.08,0.45-0.13,0.7-0.13c0.18,0,0.34,0.01,0.5,0.04c0.16,0.02,0.3,0.07,0.44,0.12v0.57c-0.15-0.08-0.3-0.13-0.45-0.17
		c-0.15-0.04-0.31-0.05-0.48-0.05c-0.15,0-0.3,0.03-0.43,0.09c-0.14,0.06-0.25,0.14-0.36,0.25c-0.1,0.11-0.18,0.24-0.24,0.4
		s-0.09,0.33-0.09,0.53c0,0.42,0.1,0.73,0.3,0.93c0.2,0.21,0.48,0.31,0.84,0.31c0.16,0,0.32-0.02,0.47-0.05
		c0.15-0.04,0.3-0.09,0.44-0.16V79.35z"/>
        <path d="M283.49,79.47h-0.59v-2.19c0-0.26-0.05-0.46-0.15-0.59c-0.1-0.13-0.24-0.2-0.42-0.2c-0.08,0-0.16,0.01-0.22,0.03
		s-0.14,0.06-0.22,0.11s-0.16,0.13-0.25,0.22s-0.19,0.21-0.31,0.34v2.28h-0.59v-4.83h0.59v1.4l-0.02,0.54
		c0.09-0.11,0.19-0.21,0.28-0.28s0.18-0.14,0.27-0.19c0.09-0.05,0.18-0.08,0.28-0.1c0.09-0.02,0.19-0.03,0.29-0.03
		c0.34,0,0.61,0.1,0.79,0.31c0.19,0.21,0.28,0.52,0.28,0.94V79.47z"/>
        <path d="M284.58,76.04h0.53l0.02,0.55c0.1-0.12,0.2-0.22,0.29-0.3c0.09-0.08,0.19-0.14,0.28-0.19s0.18-0.08,0.28-0.1
		s0.19-0.03,0.29-0.03c0.35,0,0.62,0.1,0.8,0.31c0.18,0.21,0.27,0.52,0.27,0.94v2.24h-0.59v-2.19c0-0.27-0.05-0.47-0.15-0.6
		c-0.1-0.13-0.25-0.19-0.45-0.19c-0.07,0-0.14,0.01-0.21,0.03s-0.14,0.06-0.22,0.11s-0.16,0.13-0.24,0.22s-0.19,0.21-0.3,0.34v2.28
		h-0.59V76.04z"/>
        <path d="M289.6,76.53h-1.01v-0.49h1.62v2.94h1.02v0.5h-2.75v-0.5h1.13V76.53z M289.8,74.6c0.07,0,0.13,0.01,0.19,0.04
		c0.06,0.02,0.11,0.06,0.15,0.1c0.04,0.04,0.08,0.09,0.1,0.15c0.02,0.06,0.04,0.12,0.04,0.18c0,0.06-0.01,0.12-0.04,0.18
		c-0.02,0.06-0.06,0.11-0.1,0.15c-0.04,0.04-0.09,0.08-0.15,0.1c-0.06,0.02-0.12,0.04-0.19,0.04c-0.07,0-0.13-0.01-0.18-0.04
		c-0.06-0.02-0.11-0.06-0.15-0.1c-0.04-0.04-0.08-0.09-0.1-0.15c-0.02-0.06-0.04-0.12-0.04-0.18c0-0.07,0.01-0.13,0.04-0.18
		c0.02-0.06,0.06-0.11,0.1-0.15c0.04-0.04,0.09-0.08,0.15-0.1C289.68,74.61,289.74,74.6,289.8,74.6z"/>
        <path d="M292.1,77.83c0-0.25,0.03-0.48,0.1-0.7c0.07-0.22,0.17-0.42,0.3-0.58c0.14-0.17,0.31-0.3,0.52-0.4
		c0.21-0.1,0.46-0.15,0.76-0.15c0.12,0,0.23,0.01,0.35,0.03c0.11,0.02,0.23,0.05,0.36,0.09l0.53-0.13v4.89h-0.6v-1.3l0.03-0.73
		c-0.32,0.46-0.71,0.69-1.15,0.69c-0.2,0-0.38-0.04-0.52-0.12s-0.27-0.2-0.37-0.35c-0.1-0.15-0.17-0.33-0.22-0.54
		S292.1,78.08,292.1,77.83z M292.71,77.79c0,0.19,0.01,0.36,0.04,0.52c0.03,0.15,0.07,0.28,0.13,0.39c0.06,0.11,0.13,0.19,0.22,0.24
		s0.19,0.09,0.31,0.09c0.15,0,0.31-0.07,0.48-0.2c0.17-0.13,0.34-0.33,0.53-0.6v-1.59c-0.09-0.04-0.19-0.08-0.31-0.11
		s-0.24-0.04-0.37-0.04c-0.33,0-0.59,0.11-0.77,0.33C292.8,77.04,292.71,77.36,292.71,77.79z"/>
        <path d="M298.88,79.47h-0.53l-0.02-0.55c-0.1,0.12-0.2,0.22-0.29,0.3c-0.09,0.08-0.18,0.14-0.28,0.19
		c-0.09,0.05-0.18,0.08-0.27,0.1c-0.09,0.02-0.19,0.03-0.29,0.03c-0.35,0-0.62-0.1-0.8-0.31c-0.18-0.21-0.27-0.52-0.27-0.94v-2.24
		h0.59v2.19c0,0.53,0.2,0.79,0.59,0.79c0.07,0,0.14-0.01,0.21-0.03s0.14-0.06,0.22-0.11s0.16-0.13,0.25-0.22
		c0.09-0.09,0.19-0.21,0.3-0.34v-2.28h0.59V79.47z"/>
        <path d="M302.87,77.58c0,0.08,0,0.15,0,0.21c0,0.06,0,0.11-0.01,0.16h-2.41c0,0.35,0.1,0.62,0.29,0.81
		c0.2,0.19,0.48,0.28,0.85,0.28c0.1,0,0.2,0,0.3-0.01c0.1-0.01,0.2-0.02,0.29-0.03s0.18-0.03,0.27-0.05
		c0.08-0.02,0.16-0.04,0.24-0.06v0.49c-0.16,0.04-0.34,0.08-0.55,0.11s-0.42,0.04-0.63,0.04c-0.29,0-0.55-0.04-0.76-0.12
		c-0.21-0.08-0.39-0.2-0.52-0.35s-0.24-0.34-0.3-0.56c-0.06-0.22-0.1-0.47-0.1-0.75c0-0.24,0.03-0.47,0.1-0.69
		c0.07-0.21,0.17-0.4,0.3-0.57c0.13-0.16,0.3-0.29,0.49-0.39s0.41-0.14,0.66-0.14c0.24,0,0.45,0.04,0.63,0.11
		c0.19,0.08,0.34,0.18,0.47,0.32c0.13,0.14,0.22,0.3,0.29,0.5C302.84,77.11,302.87,77.33,302.87,77.58z M302.25,77.49
		c0.01-0.15-0.01-0.29-0.04-0.42c-0.04-0.13-0.09-0.24-0.17-0.33s-0.17-0.16-0.29-0.21c-0.11-0.05-0.25-0.08-0.4-0.08
		c-0.13,0-0.25,0.02-0.36,0.07c-0.11,0.05-0.2,0.12-0.28,0.21c-0.08,0.09-0.14,0.2-0.19,0.33c-0.05,0.13-0.08,0.27-0.09,0.42H302.25
		z"/>
        <path d="M306.54,78.54c0,0.12-0.02,0.23-0.06,0.33s-0.1,0.18-0.17,0.25s-0.15,0.14-0.25,0.19c-0.09,0.05-0.19,0.1-0.3,0.13
		c-0.11,0.03-0.21,0.06-0.33,0.07c-0.11,0.02-0.22,0.02-0.33,0.02c-0.23,0-0.45-0.01-0.64-0.03c-0.19-0.02-0.39-0.05-0.57-0.1v-0.55
		c0.2,0.06,0.4,0.1,0.6,0.13c0.2,0.03,0.39,0.04,0.59,0.04c0.29,0,0.5-0.04,0.63-0.12c0.14-0.08,0.21-0.19,0.21-0.33
		c0-0.06-0.01-0.12-0.03-0.17s-0.06-0.1-0.12-0.14c-0.06-0.04-0.14-0.09-0.26-0.14c-0.12-0.05-0.28-0.1-0.49-0.16
		c-0.16-0.05-0.3-0.1-0.43-0.16c-0.13-0.06-0.24-0.13-0.34-0.21s-0.17-0.17-0.23-0.28s-0.08-0.23-0.08-0.38
		c0-0.1,0.02-0.2,0.07-0.31c0.04-0.11,0.12-0.22,0.23-0.32c0.11-0.1,0.25-0.18,0.43-0.24c0.18-0.07,0.41-0.1,0.68-0.1
		c0.13,0,0.28,0.01,0.45,0.02s0.34,0.04,0.51,0.08v0.53c-0.19-0.05-0.36-0.08-0.53-0.1c-0.17-0.02-0.31-0.03-0.44-0.03
		c-0.15,0-0.27,0.01-0.37,0.04c-0.1,0.02-0.18,0.05-0.25,0.09s-0.11,0.09-0.13,0.14s-0.04,0.11-0.04,0.17s0.01,0.12,0.04,0.17
		c0.02,0.05,0.07,0.1,0.13,0.14c0.06,0.05,0.16,0.09,0.27,0.14s0.27,0.1,0.45,0.15c0.2,0.06,0.37,0.12,0.51,0.19
		c0.14,0.07,0.25,0.14,0.34,0.22c0.09,0.08,0.15,0.17,0.19,0.27C306.52,78.29,306.54,78.41,306.54,78.54z"/>
</g>
</svg>
